<?xml version="1.0" encoding="UTF-8" standalone="no"?>
<!DOCTYPE svg PUBLIC "-//W3C//DTD SVG 1.1//EN"
 "http://www.w3.org/Graphics/SVG/1.1/DTD/svg11.dtd">
<!-- Generated by graphviz version 2.38.0 (20140413.2041)
 -->
<!-- Title: controllers_diagram Pages: 1 -->
<svg width="597pt" height="599pt"
 viewBox="0.00 0.00 597.50 599.00" xmlns="http://www.w3.org/2000/svg" xmlns:xlink="http://www.w3.org/1999/xlink">
<g id="graph0" class="graph" transform="scale(1 1) rotate(0) translate(244 355.5)">
<title>controllers_diagram</title>
<polygon fill="none" stroke="none" points="-244,243.5 -244,-355.5 353.5,-355.5 353.5,243.5 -244,243.5"/>
<!-- _diagram_info -->
<g id="node1" class="node"><title>_diagram_info</title>
<text text-anchor="start" x="88" y="-111.6" font-family="Times,serif" font-size="13.00">Controllers diagram</text>
<text text-anchor="start" x="88" y="-97.6" font-family="Times,serif" font-size="13.00">Date: Mar 02 2017 &#45; 13:29</text>
<text text-anchor="start" x="88" y="-83.6" font-family="Times,serif" font-size="13.00">Migration version: 20170302154641</text>
<text text-anchor="start" x="88" y="-69.6" font-family="Times,serif" font-size="13.00">Generated by RailRoady 1.5.2</text>
<text text-anchor="start" x="88" y="-55.6" font-family="Times,serif" font-size="13.00">http://railroady.prestonlee.com</text>
</g>
<!-- ApplicationController -->
<g id="node2" class="node"><title>ApplicationController</title>
<path fill="none" stroke="black" d="M-228,-1C-228,-1 -116,-1 -116,-1 -110,-1 -104,-7 -104,-13 -104,-13 -104,-83 -104,-83 -104,-89 -110,-95 -116,-95 -116,-95 -228,-95 -228,-95 -234,-95 -240,-89 -240,-83 -240,-83 -240,-13 -240,-13 -240,-7 -234,-1 -228,-1"/>
<text text-anchor="middle" x="-172" y="-79.8" font-family="Times,serif" font-size="14.00">ApplicationController</text>
<polyline fill="none" stroke="black" points="-240,-72 -104,-72 "/>
<polyline fill="none" stroke="black" points="-240,-48 -104,-48 "/>
<polyline fill="none" stroke="black" points="-240,-24 -104,-24 "/>
<text text-anchor="start" x="-232" y="-8.8" font-family="Times,serif" font-size="14.00">_layout</text>
</g>
<!-- Users::OmniauthCallbacksController -->
<g id="node3" class="node"><title>Users::OmniauthCallbacksController</title>
<path fill="none" stroke="black" d="M92,79C92,79 286,79 286,79 292,79 298,73 298,67 298,67 298,-3 298,-3 298,-9 292,-15 286,-15 286,-15 92,-15 92,-15 86,-15 80,-9 80,-3 80,-3 80,67 80,67 80,73 86,79 92,79"/>
<text text-anchor="middle" x="189" y="0.2" font-family="Times,serif" font-size="14.00">Users::OmniauthCallbacksController</text>
<polyline fill="none" stroke="black" points="80,8 298,8 "/>
<polyline fill="none" stroke="black" points="80,32 298,32 "/>
<polyline fill="none" stroke="black" points="80,56 298,56 "/>
<text text-anchor="start" x="88" y="71.2" font-family="Times,serif" font-size="14.00">_layout</text>
</g>
<!-- Users::RegistrationsController -->
<g id="node4" class="node"><title>Users::RegistrationsController</title>
<path fill="none" stroke="black" d="M-116,-128.5C-116,-128.5 42,-128.5 42,-128.5 48,-128.5 54,-134.5 54,-140.5 54,-140.5 54,-209.5 54,-209.5 54,-215.5 48,-221.5 42,-221.5 42,-221.5 -116,-221.5 -116,-221.5 -122,-221.5 -128,-215.5 -128,-209.5 -128,-209.5 -128,-140.5 -128,-140.5 -128,-134.5 -122,-128.5 -116,-128.5"/>
<text text-anchor="middle" x="-37" y="-206.3" font-family="Times,serif" font-size="14.00">Users::RegistrationsController</text>
<polyline fill="none" stroke="black" points="-128,-198.5 54,-198.5 "/>
<polyline fill="none" stroke="black" points="-128,-174.5 54,-174.5 "/>
<text text-anchor="start" x="-120" y="-159.3" font-family="Times,serif" font-size="14.00">configure_sign_up_params</text>
<polyline fill="none" stroke="black" points="-128,-151.5 54,-151.5 "/>
<text text-anchor="start" x="-120" y="-136.3" font-family="Times,serif" font-size="14.00">_layout</text>
</g>
<!-- Users::UnlocksController -->
<g id="node5" class="node"><title>Users::UnlocksController</title>
<path fill="none" stroke="black" d="M-227.5,239C-227.5,239 -96.5,239 -96.5,239 -90.5,239 -84.5,233 -84.5,227 -84.5,227 -84.5,157 -84.5,157 -84.5,151 -90.5,145 -96.5,145 -96.5,145 -227.5,145 -227.5,145 -233.5,145 -239.5,151 -239.5,157 -239.5,157 -239.5,227 -239.5,227 -239.5,233 -233.5,239 -227.5,239"/>
<text text-anchor="middle" x="-162" y="160.2" font-family="Times,serif" font-size="14.00">Users::UnlocksController</text>
<polyline fill="none" stroke="black" points="-239.5,168 -84.5,168 "/>
<polyline fill="none" stroke="black" points="-239.5,192 -84.5,192 "/>
<polyline fill="none" stroke="black" points="-239.5,216 -84.5,216 "/>
<text text-anchor="start" x="-231.5" y="231.2" font-family="Times,serif" font-size="14.00">_layout</text>
</g>
<!-- Users::ConfirmationsController -->
<g id="node6" class="node"><title>Users::ConfirmationsController</title>
<path fill="none" stroke="black" d="M172.5,-161C172.5,-161 337.5,-161 337.5,-161 343.5,-161 349.5,-167 349.5,-173 349.5,-173 349.5,-243 349.5,-243 349.5,-249 343.5,-255 337.5,-255 337.5,-255 172.5,-255 172.5,-255 166.5,-255 160.5,-249 160.5,-243 160.5,-243 160.5,-173 160.5,-173 160.5,-167 166.5,-161 172.5,-161"/>
<text text-anchor="middle" x="255" y="-239.8" font-family="Times,serif" font-size="14.00">Users::ConfirmationsController</text>
<polyline fill="none" stroke="black" points="160.5,-232 349.5,-232 "/>
<polyline fill="none" stroke="black" points="160.5,-208 349.5,-208 "/>
<polyline fill="none" stroke="black" points="160.5,-184 349.5,-184 "/>
<text text-anchor="start" x="168.5" y="-168.8" font-family="Times,serif" font-size="14.00">_layout</text>
</g>
<!-- Users::PasswordsController -->
<g id="node7" class="node"><title>Users::PasswordsController</title>
<path fill="none" stroke="black" d="M91.5,207C91.5,207 234.5,207 234.5,207 240.5,207 246.5,201 246.5,195 246.5,195 246.5,125 246.5,125 246.5,119 240.5,113 234.5,113 234.5,113 91.5,113 91.5,113 85.5,113 79.5,119 79.5,125 79.5,125 79.5,195 79.5,195 79.5,201 85.5,207 91.5,207"/>
<text text-anchor="middle" x="163" y="128.2" font-family="Times,serif" font-size="14.00">Users::PasswordsController</text>
<polyline fill="none" stroke="black" points="79.5,136 246.5,136 "/>
<polyline fill="none" stroke="black" points="79.5,160 246.5,160 "/>
<polyline fill="none" stroke="black" points="79.5,184 246.5,184 "/>
<text text-anchor="start" x="87.5" y="199.2" font-family="Times,serif" font-size="14.00">_layout</text>
</g>
<!-- Users::SessionsController -->
<g id="node8" class="node"><title>Users::SessionsController</title>
<path fill="none" stroke="black" d="M-19.5,-257C-19.5,-257 113.5,-257 113.5,-257 119.5,-257 125.5,-263 125.5,-269 125.5,-269 125.5,-339 125.5,-339 125.5,-345 119.5,-351 113.5,-351 113.5,-351 -19.5,-351 -19.5,-351 -25.5,-351 -31.5,-345 -31.5,-339 -31.5,-339 -31.5,-269 -31.5,-269 -31.5,-263 -25.5,-257 -19.5,-257"/>
<text text-anchor="middle" x="47" y="-335.8" font-family="Times,serif" font-size="14.00">Users::SessionsController</text>
<polyline fill="none" stroke="black" points="-31.5,-328 125.5,-328 "/>
<polyline fill="none" stroke="black" points="-31.5,-304 125.5,-304 "/>
<polyline fill="none" stroke="black" points="-31.5,-280 125.5,-280 "/>
<text text-anchor="start" x="-23.5" y="-264.8" font-family="Times,serif" font-size="14.00">_layout</text>
</g>
<!-- UserSongsController -->
<g id="node9" class="node"><title>UserSongsController</title>
<path fill="none" stroke="black" d="M-179.5,-256.5C-179.5,-256.5 -72.5,-256.5 -72.5,-256.5 -66.5,-256.5 -60.5,-262.5 -60.5,-268.5 -60.5,-268.5 -60.5,-337.5 -60.5,-337.5 -60.5,-343.5 -66.5,-349.5 -72.5,-349.5 -72.5,-349.5 -179.5,-349.5 -179.5,-349.5 -185.5,-349.5 -191.5,-343.5 -191.5,-337.5 -191.5,-337.5 -191.5,-268.5 -191.5,-268.5 -191.5,-262.5 -185.5,-256.5 -179.5,-256.5"/>
<text text-anchor="middle" x="-126" y="-334.3" font-family="Times,serif" font-size="14.00">UserSongsController</text>
<polyline fill="none" stroke="black" points="-191.5,-326.5 -60.5,-326.5 "/>
<text text-anchor="start" x="-183.5" y="-311.3" font-family="Times,serif" font-size="14.00">index</text>
<polyline fill="none" stroke="black" points="-191.5,-303.5 -60.5,-303.5 "/>
<polyline fill="none" stroke="black" points="-191.5,-279.5 -60.5,-279.5 "/>
<text text-anchor="start" x="-183.5" y="-264.3" font-family="Times,serif" font-size="14.00">_layout</text>
</g>
<!-- SongsController -->
<g id="node10" class="node"><title>SongsController</title>
<path fill="none" stroke="black" d="M-51.5,111.5C-51.5,111.5 29.5,111.5 29.5,111.5 35.5,111.5 41.5,105.5 41.5,99.5 41.5,99.5 41.5,-89.5 41.5,-89.5 41.5,-95.5 35.5,-101.5 29.5,-101.5 29.5,-101.5 -51.5,-101.5 -51.5,-101.5 -57.5,-101.5 -63.5,-95.5 -63.5,-89.5 -63.5,-89.5 -63.5,99.5 -63.5,99.5 -63.5,105.5 -57.5,111.5 -51.5,111.5"/>
<text text-anchor="middle" x="-11" y="-86.3" font-family="Times,serif" font-size="14.00">SongsController</text>
<polyline fill="none" stroke="black" points="-63.5,-78.5 41.5,-78.5 "/>
<text text-anchor="start" x="-55.5" y="-63.3" font-family="Times,serif" font-size="14.00">create</text>
<text text-anchor="start" x="-55.5" y="-48.3" font-family="Times,serif" font-size="14.00">destroy</text>
<text text-anchor="start" x="-55.5" y="-33.3" font-family="Times,serif" font-size="14.00">edit</text>
<text text-anchor="start" x="-55.5" y="-18.3" font-family="Times,serif" font-size="14.00">index</text>
<text text-anchor="start" x="-55.5" y="-3.3" font-family="Times,serif" font-size="14.00">new</text>
<text text-anchor="start" x="-55.5" y="11.7" font-family="Times,serif" font-size="14.00">show</text>
<text text-anchor="start" x="-55.5" y="26.7" font-family="Times,serif" font-size="14.00">update</text>
<polyline fill="none" stroke="black" points="-63.5,34.5 41.5,34.5 "/>
<polyline fill="none" stroke="black" points="-63.5,58.5 41.5,58.5 "/>
<text text-anchor="start" x="-55.5" y="73.7" font-family="Times,serif" font-size="14.00">_layout</text>
<text text-anchor="start" x="-55.5" y="88.7" font-family="Times,serif" font-size="14.00">set_song</text>
<text text-anchor="start" x="-55.5" y="103.7" font-family="Times,serif" font-size="14.00">song_params</text>
</g>
</g>
</svg>
