<?xml version="1.0" encoding="UTF-8" standalone="no"?>
<!DOCTYPE svg PUBLIC "-//W3C//DTD SVG 1.1//EN"
 "http://www.w3.org/Graphics/SVG/1.1/DTD/svg11.dtd">
<!-- Generated by graphviz version 2.38.0 (20140413.2041)
 -->
<!-- Title: models_diagram Pages: 1 -->
<svg width="558pt" height="158pt"
 viewBox="0.00 0.00 558.30 158.00" xmlns="http://www.w3.org/2000/svg" xmlns:xlink="http://www.w3.org/1999/xlink">
<g id="graph0" class="graph" transform="scale(1 1) rotate(0) translate(4 154)">
<title>models_diagram</title>
<polygon fill="none" stroke="none" points="-4,4 -4,-154 554.298,-154 554.298,4 -4,4"/>
<!-- _diagram_info -->
<g id="node1" class="node"><title>_diagram_info</title>
<text text-anchor="start" x="8" y="-135.6" font-family="Times,serif" font-size="13.00">Models diagram</text>
<text text-anchor="start" x="8" y="-121.6" font-family="Times,serif" font-size="13.00">Date: Mar 02 2017 &#45; 13:29</text>
<text text-anchor="start" x="8" y="-107.6" font-family="Times,serif" font-size="13.00">Migration version: 20170302154641</text>
<text text-anchor="start" x="8" y="-93.6" font-family="Times,serif" font-size="13.00">Generated by RailRoady 1.5.2</text>
<text text-anchor="start" x="8" y="-79.6" font-family="Times,serif" font-size="13.00">http://railroady.prestonlee.com</text>
</g>
<!-- Gender -->
<g id="node2" class="node"><title>Gender</title>
<ellipse fill="none" stroke="black" cx="268" cy="-111" rx="36.2938" ry="18"/>
<text text-anchor="middle" x="268" y="-107.3" font-family="Times,serif" font-size="14.00">Gender</text>
</g>
<!-- Song -->
<g id="node5" class="node"><title>Song</title>
<ellipse fill="none" stroke="black" cx="268" cy="-18" rx="28.6953" ry="18"/>
<text text-anchor="middle" x="268" y="-14.3" font-family="Times,serif" font-size="14.00">Song</text>
</g>
<!-- Gender&#45;&gt;Song -->
<g id="edge1" class="edge"><title>Gender&#45;&gt;Song</title>
<path fill="none" stroke="#13bea7" d="M268,-84.7285C268,-72.7246 268,-58.3622 268,-46.1291"/>
<ellipse fill="none" stroke="#13bea7" cx="268" cy="-88.8836" rx="4" ry="4"/>
<polygon fill="#13bea7" stroke="#13bea7" points="268,-46.0397 272.5,-36.0396 268,-41.0397 268,-36.0397 268,-36.0397 268,-36.0397 268,-41.0397 263.5,-36.0397 268,-46.0397 268,-46.0397"/>
</g>
<!-- ApplicationRecord -->
<g id="node3" class="node"><title>ApplicationRecord</title>
<ellipse fill="none" stroke="black" cx="400" cy="-111" rx="77.1866" ry="18"/>
<text text-anchor="middle" x="400" y="-107.3" font-family="Times,serif" font-size="14.00">ApplicationRecord</text>
</g>
<!-- User -->
<g id="node4" class="node"><title>User</title>
<ellipse fill="none" stroke="black" cx="523" cy="-111" rx="27.0966" ry="18"/>
<text text-anchor="middle" x="523" y="-107.3" font-family="Times,serif" font-size="14.00">User</text>
</g>
</g>
</svg>
