<?xml version="1.0" encoding="UTF-8" standalone="no"?>
<!DOCTYPE svg PUBLIC "-//W3C//DTD SVG 1.1//EN"
 "http://www.w3.org/Graphics/SVG/1.1/DTD/svg11.dtd">
<!-- Generated by graphviz version 2.38.0 (20140413.2041)
 -->
<!-- Title: models_diagram Pages: 1 -->
<svg width="987pt" height="322pt"
 viewBox="0.00 0.00 987.50 322.00" xmlns="http://www.w3.org/2000/svg" xmlns:xlink="http://www.w3.org/1999/xlink">
<g id="graph0" class="graph" transform="scale(1 1) rotate(0) translate(4 318)">
<title>models_diagram</title>
<polygon fill="none" stroke="none" points="-4,4 -4,-318 983.5,-318 983.5,4 -4,4"/>
<!-- _diagram_info -->
<g id="node1" class="node"><title>_diagram_info</title>
<text text-anchor="start" x="8" y="-217.6" font-family="Times,serif" font-size="13.00">Models diagram</text>
<text text-anchor="start" x="8" y="-203.6" font-family="Times,serif" font-size="13.00">Date: Mar 02 2017 &#45; 13:29</text>
<text text-anchor="start" x="8" y="-189.6" font-family="Times,serif" font-size="13.00">Migration version: 20170302154641</text>
<text text-anchor="start" x="8" y="-175.6" font-family="Times,serif" font-size="13.00">Generated by RailRoady 1.5.2</text>
<text text-anchor="start" x="8" y="-161.6" font-family="Times,serif" font-size="13.00">http://railroady.prestonlee.com</text>
</g>
<!-- Gender -->
<g id="node2" class="node"><title>Gender</title>
<path fill="none" stroke="black" d="M244,-147.5C244,-147.5 464,-147.5 464,-147.5 470,-147.5 476,-153.5 476,-159.5 476,-159.5 476,-226.5 476,-226.5 476,-232.5 470,-238.5 464,-238.5 464,-238.5 244,-238.5 244,-238.5 238,-238.5 232,-232.5 232,-226.5 232,-226.5 232,-159.5 232,-159.5 232,-153.5 238,-147.5 244,-147.5"/>
<text text-anchor="middle" x="354" y="-223.3" font-family="Times,serif" font-size="14.00">Gender</text>
<polyline fill="none" stroke="black" points="232,-215.5 476,-215.5 "/>
<text text-anchor="start" x="240" y="-200.3" font-family="Times,serif" font-size="14.00">id :integer</text>
<text text-anchor="start" x="240" y="-185.3" font-family="Times,serif" font-size="14.00">name :character varying</text>
<text text-anchor="start" x="240" y="-170.3" font-family="Times,serif" font-size="14.00">created_at :timestamp without time zone</text>
<text text-anchor="start" x="240" y="-155.3" font-family="Times,serif" font-size="14.00">updated_at :timestamp without time zone</text>
</g>
<!-- Song -->
<g id="node5" class="node"><title>Song</title>
<ellipse fill="none" stroke="black" cx="354" cy="-18" rx="28.6953" ry="18"/>
<text text-anchor="middle" x="354" y="-14.3" font-family="Times,serif" font-size="14.00">Song</text>
</g>
<!-- Gender&#45;&gt;Song -->
<g id="edge1" class="edge"><title>Gender&#45;&gt;Song</title>
<path fill="none" stroke="#7b9687" d="M354,-139.179C354,-108.563 354,-71.2755 354,-46.4323"/>
<ellipse fill="none" stroke="#7b9687" cx="354" cy="-143.448" rx="4" ry="4"/>
<polygon fill="#7b9687" stroke="#7b9687" points="354,-46.2827 358.5,-36.2826 354,-41.2827 354,-36.2827 354,-36.2827 354,-36.2827 354,-41.2827 349.5,-36.2827 354,-46.2827 354,-46.2827"/>
</g>
<!-- ApplicationRecord -->
<g id="node3" class="node"><title>ApplicationRecord</title>
<ellipse fill="none" stroke="black" cx="571" cy="-193" rx="77.1866" ry="18"/>
<text text-anchor="middle" x="571" y="-189.3" font-family="Times,serif" font-size="14.00">ApplicationRecord</text>
</g>
<!-- User -->
<g id="node4" class="node"><title>User</title>
<path fill="none" stroke="black" d="M678.5,-72.5C678.5,-72.5 967.5,-72.5 967.5,-72.5 973.5,-72.5 979.5,-78.5 979.5,-84.5 979.5,-84.5 979.5,-301.5 979.5,-301.5 979.5,-307.5 973.5,-313.5 967.5,-313.5 967.5,-313.5 678.5,-313.5 678.5,-313.5 672.5,-313.5 666.5,-307.5 666.5,-301.5 666.5,-301.5 666.5,-84.5 666.5,-84.5 666.5,-78.5 672.5,-72.5 678.5,-72.5"/>
<text text-anchor="middle" x="823" y="-298.3" font-family="Times,serif" font-size="14.00">User</text>
<polyline fill="none" stroke="black" points="666.5,-290.5 979.5,-290.5 "/>
<text text-anchor="start" x="674.5" y="-275.3" font-family="Times,serif" font-size="14.00">id :integer</text>
<text text-anchor="start" x="674.5" y="-260.3" font-family="Times,serif" font-size="14.00">email :character varying</text>
<text text-anchor="start" x="674.5" y="-245.3" font-family="Times,serif" font-size="14.00">encrypted_password :character varying</text>
<text text-anchor="start" x="674.5" y="-230.3" font-family="Times,serif" font-size="14.00">reset_password_token :character varying</text>
<text text-anchor="start" x="674.5" y="-215.3" font-family="Times,serif" font-size="14.00">reset_password_sent_at :timestamp without time zone</text>
<text text-anchor="start" x="674.5" y="-200.3" font-family="Times,serif" font-size="14.00">remember_created_at :timestamp without time zone</text>
<text text-anchor="start" x="674.5" y="-185.3" font-family="Times,serif" font-size="14.00">sign_in_count :integer</text>
<text text-anchor="start" x="674.5" y="-170.3" font-family="Times,serif" font-size="14.00">current_sign_in_at :timestamp without time zone</text>
<text text-anchor="start" x="674.5" y="-155.3" font-family="Times,serif" font-size="14.00">last_sign_in_at :timestamp without time zone</text>
<text text-anchor="start" x="674.5" y="-140.3" font-family="Times,serif" font-size="14.00">current_sign_in_ip :inet</text>
<text text-anchor="start" x="674.5" y="-125.3" font-family="Times,serif" font-size="14.00">last_sign_in_ip :inet</text>
<text text-anchor="start" x="674.5" y="-110.3" font-family="Times,serif" font-size="14.00">created_at :timestamp without time zone</text>
<text text-anchor="start" x="674.5" y="-95.3" font-family="Times,serif" font-size="14.00">updated_at :timestamp without time zone</text>
<text text-anchor="start" x="674.5" y="-80.3" font-family="Times,serif" font-size="14.00">name :character varying</text>
</g>
</g>
</svg>
